<svg width="48" height="48" xmlns="http://www.w3.org/2000/svg" xmlns:xlink="http://www.w3.org/1999/xlink" xmlns:svgjs="http://svgjs.com/svgjs"><svg xmlns="http://www.w3.org/2000/svg" width="48" height="48" viewBox="2 2 47 47" fill="#9e9e9e"><path fill="#9E9E9E" paint-order="stroke fill markers" fill-rule="evenodd" d="M35.847 10.311l-20.499 1.7c-.014 0-.026.008-.04.008h-.136c-.645 0-1.169.507-1.169 1.132v25.721c0 .626.524 1.13 1.17 1.13h.135c.014 0 .026.009.04.009l.091-.008h18.86c.646 0 1.17-.505 1.17-1.131v-.528l.378-.032a1.14 1.14 0 0 0 1.147-1.133V11.444a1.14 1.14 0 0 0-1.147-1.133zm-1.901 28.561c0 .066-.065.12-.146.12H15.172c-.08 0-.146-.054-.146-.12V13.151c0-.067.067-.122.146-.122H33.8c.079 0 .146.055.146.122v25.721zm2.025-1.693a.124.124 0 0 1-.124.122h-.045l-.045.004-.788.025V13.15c0-.624-.524-1.131-1.17-1.131h-5.901l7.97-.695c.059.01.103.06.103.12V37.18zM29.875 33h-10.74c-.624 0-1.13.537-1.13 1.2v.599c0 .664.506 1.199 1.13 1.199h10.74c.625 0 1.13-.535 1.13-1.2V34.2c0-.662-.505-1.199-1.13-1.199zm.13 1.799c0 .114-.069.199-.13.199h-10.74c-.06 0-.13-.085-.13-.2V34.2c0-.123.076-.199.13-.199h10.74c.055 0 .13.076.13.2v.599zM24.5 29a6.5 6.5 0 1 1 0-13 6.5 6.5 0 0 1 0 13zm0-12a5.5 5.5 0 1 0 0 11 5.5 5.5 0 0 0 0-11zm1 32C12.542 49 2 38.458 2 25.5S12.542 2 25.5 2 49 12.542 49 25.5 38.458 49 25.5 49zm0-46C13.094 3 3 13.094 3 25.5S13.094 48 25.5 48 48 37.906 48 25.5 37.906 3 25.5 3z"/></svg></svg>