<svg width="48" height="48" xmlns="http://www.w3.org/2000/svg" xmlns:xlink="http://www.w3.org/1999/xlink" xmlns:svgjs="http://svgjs.com/svgjs"><svg xmlns="http://www.w3.org/2000/svg" width="48" height="48" viewBox="2 2 47 47" fill="#9e9e9e"><path fill="#9E9E9E" paint-order="stroke fill markers" fill-rule="evenodd" d="M40.016 13.99H24.01v-2h16.006v2zm0 6.003H24.01v-2h16.006v2zm0 6.003H24.01v-2h16.006v2zm0 6.002H11.014v-2h29v2zm0 6.002H11.014v-2h29v2zm-20.02-25.01a1 1 0 0 1 1 1v9a1 1 0 0 1-1 1h-7a1 1 0 0 1-1-1v-9a1 1 0 0 1 1-1h7m0-1h-7a2 2 0 0 0-2 2v9a2 2 0 0 0 2 2h7a2 2 0 0 0 2-2v-9a2 2 0 0 0-2-2zM25.5 49C12.542 49 2 38.458 2 25.5S12.542 2 25.5 2 49 12.542 49 25.5 38.458 49 25.5 49zm0-46C13.094 3 3 13.094 3 25.5S13.094 48 25.5 48 48 37.906 48 25.5 37.906 3 25.5 3z"/></svg></svg>