<svg width="48" height="48" xmlns="http://www.w3.org/2000/svg" xmlns:xlink="http://www.w3.org/1999/xlink" xmlns:svgjs="http://svgjs.com/svgjs"><svg xmlns="http://www.w3.org/2000/svg" width="48" height="48" viewBox="2 2 47 47" fill="#9e9e9e"><path fill="#9E9E9E" paint-order="stroke fill markers" fill-rule="evenodd" d="M16.499 18.99h-1a2.502 2.502 0 0 1-2.5-2.5v-1c0-1.379 1.121-2.5 2.5-2.5h1c1.379 0 2.5 1.121 2.5 2.5v1c0 1.38-1.121 2.5-2.5 2.5zm-1-5c-.827 0-1.5.673-1.5 1.5v1c0 .827.673 1.5 1.5 1.5h1c.827 0 1.5-.673 1.5-1.5v-1c0-.827-.673-1.5-1.5-1.5h-1zm22.51 3h-16v-2h16v2zm-21.51 12.006h-1a2.502 2.502 0 0 1-2.5-2.5v-1c0-1.379 1.121-2.5 2.5-2.5h1c1.379 0 2.5 1.121 2.5 2.5v1c0 1.379-1.121 2.5-2.5 2.5zm-1-5c-.827 0-1.5.673-1.5 1.5v1c0 .827.673 1.5 1.5 1.5h1c.827 0 1.5-.673 1.5-1.5v-1c0-.827-.673-1.5-1.5-1.5h-1zm22.51 3h-16v-2h16v2zm-21.51 12.006h-1a2.502 2.502 0 0 1-2.5-2.5v-1c0-1.379 1.121-2.5 2.5-2.5h1c1.379 0 2.5 1.121 2.5 2.5v1c0 1.379-1.121 2.5-2.5 2.5zm-1-5c-.827 0-1.5.673-1.5 1.5v1c0 .827.673 1.5 1.5 1.5h1c.827 0 1.5-.673 1.5-1.5v-1c0-.827-.673-1.5-1.5-1.5h-1zm22.51 3h-16v-2h16v2zM25.5 49C12.542 49 2 38.458 2 25.5S12.542 2 25.5 2 49 12.542 49 25.5 38.458 49 25.5 49zm0-46C13.094 3 3 13.094 3 25.5S13.094 48 25.5 48 48 37.906 48 25.5 37.906 3 25.5 3z"/></svg></svg>